<svg width="91" height="90" viewBox="0 0 91 90" fill="none" xmlns="http://www.w3.org/2000/svg">
<rect x="0.8573" y="0.5" width="89" height="89" rx="44.5" fill="white"/>
<rect x="0.8573" y="0.5" width="89" height="89" rx="44.5" stroke="#E5E3DF"/>
<path d="M56.7643 40.9414L56.237 41.8203C56.0612 42.1133 55.7096 42.2305 55.3581 42.1133C54.7136 41.8789 54.069 41.4688 53.4831 41.0586C53.2487 40.8242 53.1315 40.4141 53.3073 40.1211L53.8346 39.3008C53.4245 38.832 53.0729 38.2461 52.8971 37.6602H51.9011C51.5495 37.6602 51.2565 37.4258 51.1979 37.0742C51.0807 36.3711 51.0807 35.6094 51.1979 34.9062C51.2565 34.5547 51.5495 34.2617 51.9011 34.2617H52.8971C53.0729 33.6758 53.4245 33.1484 53.8346 32.6797L53.3073 31.8594C53.1315 31.5078 53.2487 31.1562 53.4831 30.9219C54.069 30.4531 54.7136 30.1016 55.3581 29.8086C55.7096 29.6914 56.0612 29.8086 56.237 30.1602L56.7643 30.9805C57.3503 30.8633 57.9948 30.8633 58.5807 30.9805L59.1081 30.1602C59.2839 29.8086 59.6354 29.6914 59.987 29.8086C60.6315 30.1016 61.2761 30.4531 61.862 30.9219C62.0964 31.1562 62.2136 31.5078 62.0378 31.8594L61.5104 32.6797C61.9206 33.1484 62.2721 33.6758 62.4479 34.2617H63.444C63.7956 34.2617 64.0886 34.5547 64.1471 34.9062C64.2643 35.6094 64.2643 36.3125 64.1471 37.0742C64.0886 37.4258 63.7956 37.6602 63.444 37.6602H62.4479C62.2721 38.2461 61.9206 38.832 61.5104 39.3008L62.0378 40.1211C62.2136 40.4141 62.0964 40.8242 61.862 41.0586C61.2761 41.4688 60.6315 41.8789 59.987 42.1133C59.6354 42.2305 59.2839 42.1133 59.1081 41.8203L58.5807 40.9414C57.9948 41.0586 57.3503 41.0586 56.7643 40.9414ZM56.1198 37.543C58.405 39.2422 60.9831 36.6641 59.2253 34.4375C56.9401 32.6797 54.4206 35.2578 56.1198 37.543ZM49.3815 46.5664L51.3737 47.5039C51.9596 47.8555 52.194 48.5586 51.9596 49.2031C51.4323 50.668 50.4362 51.957 49.4401 53.0703C49.03 53.5977 48.2682 53.7148 47.6823 53.4219L45.9831 52.4258C45.0456 53.1875 43.9323 53.832 42.7604 54.2422V56.2344C42.7604 56.9375 42.2917 57.5234 41.5886 57.6406C40.1823 57.875 38.6589 57.875 37.194 57.6406C36.4909 57.5234 36.0221 56.9375 36.0221 56.2344V54.2422C34.7917 53.832 33.737 53.1875 32.7995 52.4258L31.1003 53.3633C30.5143 53.7148 29.7526 53.5977 29.2839 53.0703C28.3464 51.957 27.3503 50.668 26.8229 49.2031C26.5886 48.6172 26.8229 47.8555 27.4675 47.5039L29.4011 46.5664C29.1667 45.3359 29.1667 44.0469 29.4011 42.8164L27.4675 41.8203C26.8229 41.4688 26.5886 40.7656 26.8229 40.1211C27.3503 38.7148 28.3464 37.4258 29.2839 36.2539C29.7526 35.7852 30.4557 35.6094 31.1003 35.9609L32.7995 36.957C33.737 36.1367 34.7917 35.4922 36.0221 35.082V33.1484C36.0221 32.4453 36.4909 31.8594 37.1354 31.7422C38.6003 31.5078 40.1237 31.5078 41.5886 31.7422C42.2917 31.8594 42.7604 32.4453 42.7604 33.1484V35.082C43.9323 35.4922 45.0456 36.1367 45.9831 36.957L47.6823 35.9609C48.2682 35.6094 49.03 35.7266 49.4401 36.2539C50.4362 37.4258 51.4323 38.7148 51.9596 40.1211C52.194 40.7656 51.9596 41.4688 51.3737 41.8203L49.3815 42.8164C49.6159 44.0469 49.6159 45.3359 49.3815 46.5664ZM42.4675 47.7969C45.9245 43.2852 40.8268 38.1289 36.3151 41.5859C32.7995 46.0977 37.9557 51.2539 42.4675 47.7969ZM56.7643 58.4609L56.237 59.3398C56.0612 59.6328 55.7096 59.75 55.3581 59.6328C54.7136 59.3984 54.069 58.9883 53.4831 58.5195C53.2487 58.3438 53.1315 57.9336 53.3073 57.6406L53.8346 56.7617C53.4245 56.293 53.0729 55.7656 52.8971 55.1797H51.9011C51.5495 55.1797 51.2565 54.9453 51.1979 54.5938C51.0807 53.8906 51.0807 53.1289 51.1979 52.4258C51.2565 52.0742 51.5495 51.7812 51.9011 51.7812H52.8971C53.0729 51.1953 53.4245 50.668 53.8346 50.1992L53.3073 49.3789C53.1315 49.0273 53.2487 48.6758 53.4831 48.4414C54.069 47.9727 54.7136 47.6211 55.3581 47.3281C55.7096 47.2109 56.0612 47.3281 56.237 47.6797L56.7643 48.5C57.3503 48.3828 57.9948 48.3828 58.5807 48.5L59.1081 47.6797C59.2839 47.3281 59.6354 47.2109 59.987 47.3281C60.6315 47.6211 61.2761 47.9727 61.862 48.4414C62.0964 48.6758 62.2136 49.0273 62.0378 49.3789L61.5104 50.1992C61.9206 50.668 62.2721 51.1953 62.4479 51.7812H63.444C63.7956 51.7812 64.0886 52.0742 64.1471 52.4258C64.2643 53.1289 64.2643 53.832 64.1471 54.5938C64.0886 54.9453 63.7956 55.1797 63.444 55.1797H62.4479C62.2721 55.7656 61.9206 56.293 61.5104 56.7617L62.0378 57.6406C62.2136 57.9336 62.0964 58.3438 61.862 58.5195C61.2761 58.9883 60.6315 59.3984 59.987 59.6328C59.6354 59.75 59.2839 59.6328 59.1081 59.3398L58.5807 58.4609C57.9948 58.5781 57.3503 58.5781 56.7643 58.4609ZM56.1198 55.0039C58.405 56.7617 60.9831 54.1836 59.2253 51.957C56.9401 50.1992 54.4206 52.7773 56.1198 55.0039Z" fill="#F7811F"/>
</svg>
