<svg width="91" height="90" viewBox="0 0 91 90" fill="none" xmlns="http://www.w3.org/2000/svg">
<rect x="1.11304" y="0.5" width="89" height="89" rx="44.5" fill="white"/>
<rect x="1.11304" y="0.5" width="89" height="89" rx="44.5" stroke="#E5E3DF"/>
<path d="M38.3037 57.875V34.4375C38.3037 32.9141 39.5341 31.625 41.1162 31.625H50.4912C52.0146 31.625 53.3037 32.9141 53.3037 34.4375V57.875H38.3037ZM42.0537 35.375V37.25H49.5537V35.375H42.0537ZM60.8037 40.0625V55.0625C60.8037 56.6445 59.5146 57.875 57.9912 57.875H55.1787V37.25H57.9912C59.5146 37.25 60.8037 38.5391 60.8037 40.0625ZM36.4287 57.875H33.6162C32.0341 57.875 30.8037 56.6445 30.8037 55.0625V40.0625C30.8037 38.5391 32.0341 37.25 33.6162 37.25H36.4287V57.875Z" fill="#F7811F"/>
</svg>
