<svg width="91" height="90" viewBox="0 0 91 90" fill="none" xmlns="http://www.w3.org/2000/svg">
<rect x="0.601562" y="0.5" width="89" height="89" rx="44.5" fill="white"/>
<rect x="0.601562" y="0.5" width="89" height="89" rx="44.5" stroke="#E5E3DF"/>
<path d="M56.9188 37.25H64.0086V52.25H60.2586C59.2039 52.25 58.3836 51.4297 58.3836 50.375H54.9852C54.868 50.9023 54.6336 51.3125 54.3406 51.7227L52.8172 53.6562C51.8797 54.7695 50.3563 55.1211 49.0672 54.5938C48.2469 55.5898 47.2508 56 46.1961 56C45.3172 56 44.4969 55.707 43.7938 55.1211C41.9188 56.3516 39.3992 56.3516 37.5828 54.8867L32.6609 50.375H32.075C32.075 51.4297 31.2547 52.25 30.2586 52.25H26.5086V37.25H33.4227L36.1766 34.4961C36.8211 33.8516 37.6414 33.5 38.5203 33.5H51.8211C52.7 33.5 53.5203 33.9102 54.1063 34.4961L56.9188 37.25ZM29.3211 50.375C29.7898 50.375 30.2586 49.9648 30.2586 49.4375C30.2586 48.9102 29.7898 48.5 29.3211 48.5C28.7938 48.5 28.3836 48.9102 28.3836 49.4375C28.3836 49.9648 28.7938 50.375 29.3211 50.375ZM52.1727 49.9648C52.2898 49.7891 52.2898 49.4961 52.0555 49.3203L45.7273 44.1641L45.2586 44.6328C42.9148 46.7422 40.1609 45.2773 39.282 44.3398C37.7586 42.6406 37.8172 40.0039 39.575 38.4219L41.8602 36.3125H38.5203C38.4031 36.3711 38.2859 36.4297 38.1688 36.4883L34.5359 40.0625H32.1336V47.5625H33.7156L39.4578 52.7188C40.3953 53.4805 41.8602 53.3633 42.6805 52.3672L43.5594 51.2539L45.7273 53.0703C45.9031 53.1875 46.4305 53.3633 46.782 52.9531L48.5398 50.7852L49.9461 51.957C50.1805 52.0742 50.4734 52.0742 50.5906 51.8398L52.1727 49.9648ZM58.3836 47.5625V40.0625H55.7469L52.1141 36.4883C52.0555 36.3711 51.9383 36.3125 51.8211 36.3125L46.8992 36.3711C46.3133 36.3711 45.7273 36.5469 45.3172 36.957L41.45 40.4727C40.9227 41 40.8641 41.8789 41.3914 42.4648C41.9188 43.0508 42.8563 42.9922 43.4422 42.4648L46.6648 39.5352C47.0164 39.1836 47.6609 39.1836 48.0125 39.5938L48.5984 40.2383C48.95 40.6484 48.95 41.2344 48.5398 41.5859L47.8367 42.2305L53.8719 47.1523C53.9891 47.2695 54.1648 47.4453 54.282 47.5625H58.3836ZM61.1961 50.375C61.6648 50.375 62.1336 49.9648 62.1336 49.4375C62.1336 48.9102 61.6648 48.5 61.1961 48.5C60.6688 48.5 60.2586 48.9102 60.2586 49.4375C60.2586 49.9648 60.6688 50.375 61.1961 50.375Z" fill="#F7811F"/>
</svg>
