<svg width="91" height="90" viewBox="0 0 91 90" fill="none" xmlns="http://www.w3.org/2000/svg">
<rect x="1.28003" y="0.5" width="89" height="89" rx="44.5" fill="white"/>
<rect x="1.28003" y="0.5" width="89" height="89" rx="44.5" stroke="#E5E3DF"/>
<path d="M63.7496 41.9375C64.2183 41.9375 64.6871 42.4062 64.6871 42.875V44.75C64.6871 45.2773 64.2183 45.6875 63.7496 45.6875H59.9996V49.4375C59.9996 49.9648 59.5308 50.375 59.0621 50.375H57.1871C56.6597 50.375 56.2496 49.9648 56.2496 49.4375V45.6875H52.4996C51.9722 45.6875 51.5621 45.2773 51.5621 44.75V42.875C51.5621 42.4062 51.9722 41.9375 52.4996 41.9375H56.2496V38.1875C56.2496 37.7188 56.6597 37.25 57.1871 37.25H59.0621C59.5308 37.25 59.9996 37.7188 59.9996 38.1875V41.9375H63.7496ZM40.3121 44.75C36.1519 44.75 32.8121 41.4102 32.8121 37.25C32.8121 33.1484 36.1519 29.75 40.3121 29.75C44.4136 29.75 47.8121 33.1484 47.8121 37.25C47.8121 41.4102 44.4136 44.75 40.3121 44.75ZM45.5269 46.625C49.8628 46.625 53.4371 50.1992 53.4371 54.5352V56.9375C53.4371 58.5195 52.148 59.75 50.6246 59.75H29.9996C28.4175 59.75 27.1871 58.5195 27.1871 56.9375V54.5352C27.1871 50.1992 30.7027 46.625 35.0386 46.625H36.0347C37.3238 47.2695 38.7886 47.5625 40.3121 47.5625C41.8355 47.5625 43.2417 47.2695 44.5308 46.625H45.5269Z" fill="#F7811F"/>
</svg>
