<svg width="21" height="21" viewBox="0 0 21 21" fill="none" xmlns="http://www.w3.org/2000/svg">
<path d="M7.5685 16.1164C7.47082 16.1164 7.38291 16.0968 7.28524 16.0577C7.01175 15.9503 6.83594 15.6768 6.83594 15.3838V9.52333C6.83594 9.12286 7.16803 8.79077 7.5685 8.79077C7.96896 8.79077 8.30105 9.12286 8.30105 9.52333V13.6159L9.00431 12.9126C9.28757 12.6294 9.7564 12.6294 10.0397 12.9126C10.3229 13.1959 10.3229 13.6647 10.0397 13.948L8.08617 15.9015C7.94943 16.0382 7.75408 16.1164 7.5685 16.1164Z" fill="white"/>
<path d="M7.57032 16.1162C7.38474 16.1162 7.19916 16.0479 7.05265 15.9014L5.09916 13.9479C4.8159 13.6646 4.8159 13.1958 5.09916 12.9125C5.38242 12.6293 5.85125 12.6293 6.13451 12.9125L8.088 14.866C8.37125 15.1493 8.37125 15.6181 8.088 15.9014C7.94149 16.0479 7.7559 16.1162 7.57032 16.1162Z" fill="white"/>
<path d="M13.4302 21H7.56977C2.26605 21 0 18.734 0 13.4302V7.56977C0 2.26605 2.26605 0 7.56977 0H12.4535C12.854 0 13.186 0.332093 13.186 0.732558C13.186 1.13302 12.854 1.46512 12.4535 1.46512H7.56977C3.06698 1.46512 1.46512 3.06698 1.46512 7.56977V13.4302C1.46512 17.933 3.06698 19.5349 7.56977 19.5349H13.4302C17.933 19.5349 19.5349 17.933 19.5349 13.4302V8.54651C19.5349 8.14605 19.867 7.81395 20.2674 7.81395C20.6679 7.81395 21 8.14605 21 8.54651V13.4302C21 18.734 18.734 21 13.4302 21Z" fill="white"/>
<path d="M20.2672 9.2791H16.3602C13.0198 9.2791 11.7207 7.98002 11.7207 4.63956V0.732581C11.7207 0.439558 11.8965 0.16607 12.17 0.0586277C12.4435 -0.0585816 12.7561 0.00979045 12.9709 0.214907L20.7849 8.02886C20.99 8.23398 21.0584 8.55631 20.9412 8.8298C20.824 9.10329 20.5602 9.2791 20.2672 9.2791ZM13.1858 2.50049V4.63956C13.1858 7.15956 13.8402 7.81398 16.3602 7.81398H18.4993L13.1858 2.50049Z" fill="white"/>
</svg>
