<svg width="50" height="50" viewBox="0 0 50 50" fill="none" xmlns="http://www.w3.org/2000/svg">
<rect width="50" height="50" rx="12" fill="#00D72F" fill-opacity="0.15"/>
<path d="M33.37 25.207H30.238C29.356 25.207 28.573 25.693 28.177 26.485L27.421 27.979C27.241 28.339 26.881 28.564 26.485 28.564H23.533C23.254 28.564 22.858 28.501 22.597 27.979L21.841 26.494C21.6497 26.1109 21.3556 25.7885 20.9917 25.5629C20.6277 25.3372 20.2082 25.2171 19.78 25.216H16.63C16.279 25.216 16 25.495 16 25.846V28.78C16 32.047 17.962 34.0001 21.238 34.0001H28.78C31.867 34.0001 33.766 32.3081 34 29.302V25.837C34 25.495 33.721 25.207 33.37 25.207Z" fill="#00D72F"/>
<path d="M34 21.229V23.965C33.7979 23.8928 33.5847 23.8563 33.37 23.857H30.238C28.843 23.857 27.592 24.631 26.971 25.873L26.296 27.205H23.722L23.047 25.882C22.7472 25.2721 22.2819 24.7587 21.7042 24.4006C21.1265 24.0425 20.4597 23.8542 19.78 23.857H16.63C16.414 23.857 16.198 23.893 16 23.965V21.229C16 17.953 17.953 16 21.229 16H28.771C32.047 16 34 17.953 34 21.229Z" fill="#00D72F"/>
</svg>
