<svg width="50" height="50" viewBox="0 0 50 50" fill="none" xmlns="http://www.w3.org/2000/svg">
<rect width="50" height="50" rx="12" fill="#B0DA8E" fill-opacity="0.15"/>
<path d="M31.939 21.7195C31.0427 17.7756 27.6024 16 24.5805 16H24.5719C21.5585 16 18.1097 17.7671 17.2134 21.711C16.2146 26.1159 18.9122 29.8463 21.3536 32.1939C22.219 33.0315 23.3761 33.4999 24.5805 33.5C25.7414 33.5 26.9024 33.0646 27.7988 32.1939C30.2402 29.8463 32.9378 26.1244 31.939 21.7195ZM24.5805 25.9963C24.2273 25.9963 23.8777 25.9268 23.5514 25.7917C23.2252 25.6565 22.9287 25.4584 22.679 25.2087C22.4293 24.959 22.2313 24.6626 22.0961 24.3364C21.961 24.0101 21.8914 23.6604 21.8914 23.3073C21.8914 22.9542 21.961 22.6045 22.0961 22.2783C22.2313 21.952 22.4293 21.6556 22.679 21.4059C22.9287 21.1562 23.2252 20.9581 23.5514 20.823C23.8777 20.6878 24.2273 20.6183 24.5805 20.6183C25.2936 20.6183 25.9776 20.9016 26.4819 21.4059C26.9862 21.9102 27.2695 22.5941 27.2695 23.3073C27.2695 24.0205 26.9862 24.7045 26.4819 25.2087C25.9776 25.713 25.2936 25.9963 24.5805 25.9963Z" fill="#B0DA8E"/>
</svg>
